<?xml version="1.0" encoding="utf-8"?>
<svg xmlns="http://www.w3.org/2000/svg" viewBox="0 0 26 26" width="208" height="208">
  <path d="M7.53125 -0.03125C7.320313 -0.03125 7.105469 0.0390625 6.90625 0.1875L1.40625 4.1875C1.207031 4.386719 1 4.699219 1 5L1 25C1 25.601563 1.398438 26 2 26L24 26C24.601563 26 25 25.601563 25 25L25 5C25 4.699219 24.792969 4.386719 24.59375 4.1875L19.09375 0.1875C18.792969 -0.113281 18.304688 -0.113281 17.90625 0.1875L13 3.75L8.09375 0.1875C7.945313 0.0390625 7.742188 -0.03125 7.53125 -0.03125 Z M 4 6L6 6L6 8L4 8 Z M 9 6L11 6L11 8L9 8 Z M 15 6L17 6L17 8L15 8 Z M 20 6L22 6L22 8L20 8 Z M 4 11L6 11L6 13L4 13 Z M 9 11L11 11L11 13L9 13 Z M 15 11L17 11L17 13L15 13 Z M 20 11L22 11L22 13L20 13 Z M 4 16L6 16L6 18L4 18 Z M 9 16L11 16L11 18L9 18 Z M 15 16L17 16L17 18L15 18 Z M 20 16L22 16L22 18L20 18 Z M 4 21L6 21L6 23L4 23 Z M 9 21L11 21L11 23L9 23 Z M 15 21L17 21L17 23L15 23 Z M 20 21L22 21L22 23L20 23Z" />
</svg>