<?xml version="1.0" encoding="utf-8"?>
<svg xmlns="http://www.w3.org/2000/svg" viewBox="0 0 16 16" width="96" height="96">
  <path d="M8 1C6.902344 1 6 1.902344 6 3C6 3.546875 6.222656 4.046875 6.585938 4.410156C6.585938 4.410156 6.585938 4.414063 6.585938 4.414063C6.363281 4.554688 6.167969 4.734375 5.992188 4.9375C5.960938 3.867188 5.078125 3 4 3C2.902344 3 2 3.902344 2 5C2 5.535156 2.21875 6.023438 2.5625 6.382813C1.636719 6.894531 1 7.871094 1 9L2 9C2 7.890625 2.890625 7 4 7C4.453125 7 4.863281 7.148438 5.199219 7.398438L6 8L6 7C6 5.890625 6.890625 5 8 5C9.109375 5 10 5.890625 10 7L10 8L10.800781 7.398438C11.136719 7.148438 11.546875 7 12 7C13.109375 7 14 7.890625 14 9L15 9C15 7.871094 14.363281 6.894531 13.4375 6.382813C13.78125 6.023438 14 5.535156 14 5C14 3.902344 13.097656 3 12 3C10.921875 3 10.039063 3.867188 10.003906 4.9375C9.832031 4.734375 9.636719 4.550781 9.414063 4.410156C9.777344 4.046875 10 3.546875 10 3C10 1.902344 9.097656 1 8 1 Z M 8 2C8.558594 2 9 2.441406 9 3C9 3.558594 8.558594 4 8 4C7.441406 4 7 3.558594 7 3C7 2.441406 7.441406 2 8 2 Z M 4 4C4.558594 4 5 4.441406 5 5C5 5.558594 4.558594 6 4 6C3.441406 6 3 5.558594 3 5C3 4.441406 3.441406 4 4 4 Z M 12 4C12.558594 4 13 4.441406 13 5C13 5.558594 12.558594 6 12 6C11.441406 6 11 5.558594 11 5C11 4.441406 11.441406 4 12 4 Z M 8 8C6.902344 8 6 8.902344 6 10C6 10.535156 6.21875 11.023438 6.5625 11.382813C5.636719 11.894531 5 12.871094 5 14L6 14C6 12.890625 6.890625 12 8 12C9.109375 12 10 12.890625 10 14L11 14C11 12.871094 10.363281 11.894531 9.4375 11.382813C9.78125 11.023438 10 10.535156 10 10C10 8.902344 9.097656 8 8 8 Z M 8 9C8.558594 9 9 9.441406 9 10C9 10.558594 8.558594 11 8 11C7.441406 11 7 10.558594 7 10C7 9.441406 7.441406 9 8 9Z" />
</svg>