<?xml version="1.0" encoding="utf-8"?>
<svg xmlns="http://www.w3.org/2000/svg" viewBox="0 0 26 26" width="208" height="208">
  <path d="M0.8125 0C0.371094 0 0 0.363281 0 0.8125L0 20.1875C0 20.636719 0.371094 21 0.8125 21L10 21L10 22L4.1875 22L1 26L25 26L21.8125 22L16 22L16 21L25.1875 21C25.628906 21 26 20.636719 26 20.1875L26 0.8125C26 0.363281 25.628906 0 25.1875 0 Z M 2.84375 2L23.15625 2C23.628906 2 24 2.351563 24 2.78125L24 18.21875C24 18.648438 23.628906 19 23.15625 19L2.84375 19C2.371094 19 2 18.648438 2 18.21875L2 2.78125C2 2.351563 2.371094 2 2.84375 2 Z M 9.375 5.125L4 10.5L9.375 15.875L10.8125 14.4375L6.875 10.5L10.8125 6.5625 Z M 16.625 5.125L15.1875 6.5625L19.125 10.5L15.1875 14.4375L16.625 15.875L22 10.5Z" />
</svg>