<?xml version="1.0" encoding="utf-8"?>
<svg xmlns="http://www.w3.org/2000/svg" viewBox="0 0 64 64" width="512" height="512">
  <path d="M11 9C9.895 9 9 9.895 9 11L9 17L4 22L4 26L10 26L10 22L14 17L17 17L14 22L14 26L20 26L20 22L22 17L25 17L24 22L24 26L30 26L30 22L30 17L32 17L34 17L34 22L34 26L40 26L40 22L39 17L42 17L44 22L44 26L50 26L50 22L47 17L50 17L54 22L54 26L60 26L60 22L55 17L55 11C55 9.895 54.105 9 53 9L32 9L11 9 z M 41 11L42 11C42.552 11 43 11.448 43 12L43 13C43 13.552 42.552 14 42 14L41 14C40.448 14 40 13.552 40 13L40 12C40 11.448 40.448 11 41 11 z M 46 11L47 11C47.552 11 48 11.448 48 12L48 13C48 13.552 47.552 14 47 14L46 14C45.448 14 45 13.552 45 13L45 12C45 11.448 45.448 11 46 11 z M 51 11L52 11C52.552 11 53 11.448 53 12L53 13C53 13.552 52.552 14 52 14L51 14C50.448 14 50 13.552 50 13L50 12C50 11.448 50.448 11 51 11 z M 7 29L7 56L36 56L36 34L48 34L48 44L44 44L44 46C44 46.552 44.448 47 45 47L48 47L48 56L57 56L57 30L7 29 z M 16 34L30 34L30 49L16 49L16 34 z" fill="#000000" />
</svg>