<?xml version="1.0" encoding="utf-8"?>
<svg xmlns="http://www.w3.org/2000/svg" viewBox="0 0 16 16" width="96" height="96">
  <path d="M11.464844 1L8.9824219 7.0605469C6.4155712 7.7175056 6.2492644 9.3850327 6.1269531 10.736328C6.0204832 11.917265 5.9007954 12.61319 4.8984375 13L1 13L1 14L5 14C10.829 14 12 11.896 12 8.5L12 8.2714844L14.976562 1L13.896484 1L11.042969 7.9707031C10.709989 7.9318881 10.254893 7.8259663 9.890625 7.484375L12.544922 1L11.464844 1 z M 9.0566406 8.0644531C9.6496406 8.7284531 10.460187 8.9274219 10.992188 8.9824219C10.928187 11.037422 10.351547 12.616453 6.5605469 12.939453C6.9895469 12.291453 7.0590937 11.507172 7.1210938 10.826172C7.2360938 9.5681719 7.3266406 8.5604531 9.0566406 8.0644531 z" />
</svg>