<?xml version="1.0" encoding="utf-8"?>
<svg xmlns="http://www.w3.org/2000/svg" width="512" height="512" viewBox="0 0 512 512">
  <path fill="#3A0CA3" d="M7.9,256C7.9,119,119,7.9,256,7.9C393,7.9,504.1,119,504.1,256c0,137-111.1,248.1-248.1,248.1C119,504.1,7.9,393,7.9,256z" />
  <path fill="#FFF" d="M284.4 202.8c0-32.8 0-65.6 0-98.4 0-4-3.3-7.4-7.3-7.4-32.8 0-65.6 0-98.3 0-6.5 0-9.8 8-5.2 12.6 12.9 12.9 25.8 25.8 38.8 38.8-21.6 21.6-43.1 43.1-64.7 64.7-13.4 13.4 7.5 34.1 20.9 20.7 21.5-21.5 43.1-43.1 64.6-64.6 12.9 12.9 25.9 25.9 38.8 38.8 2.5 2.5 5.4 2.6 7.8 1.5C282.3 208.6 284.4 206.4 284.4 202.8zM183.5 386.6c0 6.8-5.5 12.3-12.3 12.3h-48.6c-6.8 0-12.3-5.5-12.3-12.3V303c0-6.8 5.5-12.3 12.3-12.3h48.6c6.8 0 12.3 5.5 12.3 12.3V386.6zM285.3 386.6c0 6.8-5.5 12.3-12.3 12.3h-48.6c-6.8 0-12.3-5.5-12.3-12.3V242.3c0-6.8 5.5-12.3 12.3-12.3H273c6.8 0 12.3 5.5 12.3 12.3V386.6zM389.8 386.6c0 6.8-5.5 12.3-12.3 12.3h-48.6c-6.8 0-12.3-5.5-12.3-12.3V181.5c0-6.8 5.5-12.3 12.3-12.3h48.6c6.8 0 12.3 5.5 12.3 12.3V386.6z" />
</svg>