<?xml version="1.0" encoding="utf-8"?>
<svg xmlns="http://www.w3.org/2000/svg" viewBox="0 0 26 26" width="208" height="208">
  <path d="M3 1C2.449 1 2 1.449 2 2L2 3C2 3.551 2.449 4 3 4L23 4C23.551 4 24 3.551 24 3L24 2C24 1.449 23.551 1 23 1L3 1 z M 2.9882812 5C2.4372813 5 1.9882812 5.449 1.9882812 6L1.9882812 7.0332031L0.25 12C0.25 12 0.25 13 1.25 13C1.6206764 13 1.8531943 12.862393 2 12.689453L2 14L2 24C2 24.551 2.449 25 3 25L5 25L16 25L16 16L21 16L21 25L23 25C23.551 25 24 24.551 24 24L24 14L24 12.689453C24.146806 12.862393 24.379324 13 24.75 13C25.75 13 25.75 12 25.75 12L24 7L24 6C24 5.449 23.551 5 23 5L2.9882812 5 z M 3.3652344 8L5.8007812 8L5 12C5 12.759 4.384 13.375 3.625 13.375C2.866 13.375 2.25 12.759 2.25 12L3.3652344 8 z M 7.5742188 8L9.9257812 8L9.625 12L9.625 12.125C9.625 12.884 9.009 13.5 8.25 13.5C7.491 13.5 6.875 12.884 6.875 12.125L6.875 12L7.5742188 8 z M 11.724609 8L14.275391 8L14.375 12L14.375 12.125C14.375 12.884 13.759 13.5 13 13.5C12.241 13.5 11.625 12.884 11.625 12.125L11.625 12L11.724609 8 z M 16.074219 8L18.425781 8L19.125 12L19.125 12.125C19.125 12.884 18.509 13.5 17.75 13.5C16.991 13.5 16.375 12.884 16.375 12.125L16.375 12L16.074219 8 z M 20.199219 8L22.550781 8L23.75 12L23.75 12.125C23.75 12.884 23.134 13.5 22.375 13.5C21.616 13.5 21 12.884 21 12.125L21 12L20.199219 8 z M 5 16L13 16L13 22L5 22L5 16 z" />
</svg>