<?xml version="1.0" encoding="utf-8"?>
<svg xmlns="http://www.w3.org/2000/svg" viewBox="0 0 16 16" width="96" height="96">
  <path d="M5.5 2C4.675781 2 4 2.675781 4 3.5L4 4L5 4L5 3.5C5 3.21875 5.21875 3 5.5 3L10.5 3C10.78125 3 11 3.21875 11 3.5L11 4L12 4L12 3.5C12 2.675781 11.324219 2 10.5 2 Z M 4.273438 5.023438L2.148438 7.148438C1.953125 7.339844 1.953125 7.660156 2.148438 7.851563L4.273438 9.976563L4.976563 9.273438L3.207031 7.5L4.976563 5.726563 Z M 11.730469 5.023438L11.019531 5.726563L12.792969 7.5L11.019531 9.273438L11.730469 9.976563L13.855469 7.851563C14.046875 7.660156 14.046875 7.339844 13.855469 7.148438 Z M 4 11L4 12.5C4 13.324219 4.675781 14 5.5 14L10.5 14C11.324219 14 12 13.324219 12 12.5L12 11L11 11L11 12.5C11 12.78125 10.78125 13 10.5 13L5.5 13C5.21875 13 5 12.78125 5 12.5L5 11 Z M 7 11L7 12L9 12L9 11Z" />
</svg>