<?xml version="1.0" encoding="utf-8"?>
<svg xmlns="http://www.w3.org/2000/svg" width="512" height="512" viewBox="0 0 512 512">
  <path fill="#3A0CA3" d="M7.9,256C7.9,119,119,7.9,256,7.9C393,7.9,504.1,119,504.1,256c0,137-111.1,248.1-248.1,248.1C119,504.1,7.9,393,7.9,256z" />
  <path fill="#ffffff" d="M256,108.3c-5.1,0-9.3,4.2-9.3,9.3v212.1c0,5.1,4.2,9.3,9.3,9.3s9.3-4.2,9.3-9.3V117.6C265.3,112.5,261.1,108.3,256,108.3z" />
  <path fill="#ffffff" d="M252.2,326.9c-2.8,2.8-2.8,7.4,0,10.3l60.4,60.4c2.8,2.8,7.4,2.8,10.3,0c2.8-2.8,2.8-7.4,0-10.3l-60.4-60.4C259.6,324.1,255,324.1,252.2,326.9z" />
  <path fill="#ffffff" d="M260.5,326.9c2.8,2.8,2.8,7.4,0,10.3l-60.4,60.4c-2.8,2.8-7.4,2.8-10.2,0c-2.8-2.8-2.8-7.4,0-10.3l60.4-60.4C253,324.1,257.7,324.1,260.5,326.9z" />
  <path fill="#383939" d="M386.6,283.9c0,19.2-15.6,5.8-34.8,5.8H163.2c-19.2,0-34.8,13.4-34.8-5.8V138.8c0-19.2,15.6-8.7,34.8-8.7h188.6c19.2,0,34.8-10.5,34.8,8.7V283.9z" />
  <path fill="#ffffff" d="M399.6 126.3c0 4.8-5.5 8.7-12.2 8.7H124.6c-6.7 0-12.2-3.9-12.2-8.7l0 0c0-4.8 5.5-8.7 12.2-8.7h262.9C394.2 117.6 399.6 121.5 399.6 126.3L399.6 126.3zM399.6 287.6c0 4.8-5.5 8.7-12.2 8.7H124.6c-6.7 0-12.2-3.9-12.2-8.7l0 0c0-4.8 5.5-8.7 12.2-8.7h262.9C394.2 278.9 399.6 282.8 399.6 287.6L399.6 287.6z" />
  <g opacity=".3">
    <path fill="#16193B" d="M370.2 163.1L370.3 164.6 370.3 168.1 370.2 166.6zM261.9 165.4L261.9 166.9 261.8 174.9 261.8 173.4zM275.8 165.4L275.8 166.9 275.8 174.9 275.7 173.5zM289.6 165.5L289.7 167 289.6 175 289.6 173.5zM303.6 165.5L303.6 167 303.5 175 303.5 173.6zM317.4 165.6L317.5 167.1 317.4 175.1 317.4 173.6zM331.3 165.6L331.4 167.1 331.3 175.1 331.3 173.6zM342.4 165.7L342.5 167.2 342.4 175.2 342.4 173.7zM356.4 165.7L356.4 167.2 356.3 175.2 356.3 173.7zM261.8 176.1L261.8 177.6 261.8 188.3 261.7 186.8zM275.7 176.1L275.7 177.6 275.7 188.3 275.7 186.8zM289.6 176.2L289.6 177.7 289.6 188.4 289.5 186.9zM303.5 176.2L303.5 177.7 303.5 188.4 303.4 186.9zM317.4 176.3L317.4 177.8 317.3 188.5 317.3 187zM331.3 176.3L331.3 177.8 331.3 188.5 331.2 187zM342.4 176.4L342.4 177.9 342.4 188.6 342.3 187.1zM356.3 176.4L356.3 177.9 356.3 188.6 356.2 187.1zM261.7 189.5L261.8 191 261.7 204.4 261.7 202.9zM275.6 189.5L275.7 191 275.6 204.4 275.6 202.9zM289.5 189.6L289.5 191.1 289.5 204.5 289.5 203zM303.4 189.6L303.5 191.1 303.4 204.5 303.4 203zM317.3 189.7L317.3 191.2 317.3 204.6 317.2 203.1zM331.2 189.7L331.2 191.2 331.2 204.6 331.2 203.1zM342.3 189.8L342.3 191.2 342.3 204.6 342.3 203.2zM356.2 189.8L356.3 191.3 356.2 204.7 356.2 203.2zM303.4 207.2L303.3 205.7 314.5 205.7 314.5 207.2M261.7 205.5L261.7 207 261.6 215.1 261.6 213.6zM275.6 205.6L275.6 207.1 275.5 215.1 275.5 213.6zM289.4 205.6L289.5 207.1 289.4 215.2 289.4 213.7z" opacity=".1" />
    <path fill="#16193B" d="M303.3 205.7L303.4 207.2 303.3 215.2 303.3 213.7zM317.2 205.7L317.3 207.2 317.2 215.3 317.2 213.8zM331.1 205.8L331.2 207.3 331.1 215.3 331.1 213.8zM342.2 205.8L342.3 207.3 342.2 215.3 342.2 213.9zM356.2 205.9L356.2 207.4 356.1 215.4 356.1 213.9zM261.6 216.2L261.6 217.7 261.6 228.5 261.5 227zM275.5 216.3L275.5 217.8 275.5 228.5 275.5 227zM289.4 216.3L289.4 217.8 289.4 228.6 289.3 227.1zM303.3 216.4L303.3 217.9 303.3 228.6 303.2 227.1zM317.2 216.4L317.2 217.9 317.1 228.7 317.1 227.2zM331.1 216.5L331.1 218 331.1 228.7 331 227.2zM342.2 216.5L342.2 218 342.2 228.7 342.1 227.2zM356.1 216.6L356.1 218.1 356.1 228.8 356 227.3zM261.5 229.6L261.6 231.1 261.5 241.8 261.5 240.3zM275.4 229.7L275.5 231.2 275.4 241.9 275.4 240.4zM289.3 229.7L289.3 231.2 289.3 241.9 289.3 240.4zM303.2 229.8L303.2 231.3 303.2 242 303.2 240.5zM317.1 229.8L317.1 231.3 317.1 242 317.1 240.5zM331 229.9L331 231.4 331 242.1 331 240.6zM342.1 229.9L342.1 231.4 342.1 242.1 342.1 240.6zM356 230L356.1 231.5 356 242.2 356 240.7zM261.5 243L261.5 244.5 261.4 252.5 261.4 251.1zM275.4 243.1L275.4 244.6 275.4 252.6 275.3 251.1zM289.2 243.1L289.3 244.6 289.2 252.6 289.2 251.2zM303.2 243.2L303.2 244.6 303.1 252.7 303.1 251.2zM317 243.2L317.1 244.7 317 252.7 317 251.2zM330.9 243.3L331 244.7 330.9 252.8 330.9 251.3zM342.1 243.3L342.1 244.8 342 252.8 342 251.3zM356 243.3L356 244.8 355.9 252.9 355.9 251.4z" opacity=".1" />
    <path fill="gray" d="M261.7 253.7L261.7 255.2 258.7 255.2 258.6 253.7zM272.8 253.8L272.8 255.3 261.7 255.2 261.7 253.7zM275.5 253.8L275.6 255.3 272.8 255.3 272.8 253.8z" />
    <path fill="#16193B" d="M370.2 166.6L370.3 168.1 369.8 253.8 369.8 252.3z" opacity=".1" />
    <path fill="gray" d="M286.7 253.8L286.7 255.3 275.6 255.3 275.5 253.8zM289.4 253.8L289.5 255.3 286.7 255.3 286.7 253.8z" />
    <path fill="gray" d="M300.5 253.9L300.6 255.4 289.5 255.3 289.4 253.8z" />
    <path fill="gray" d="M303.3 253.9L303.4 255.4 300.6 255.4 300.5 253.9z" />
    <path fill="gray" d="M314.5 253.9L314.5 255.4 303.4 255.4 303.3 253.9zM317.2 253.9L317.3 255.4 314.5 255.4 314.5 253.9z" />
    <path fill="gray" d="M328.3 254L328.4 255.5 317.3 255.4 317.2 253.9z" />
    <path fill="gray" d="M331.1 254L331.1 255.5 328.4 255.5 328.3 254zM339.5 254L339.5 255.5 331.1 255.5 331.1 254zM342.2 254L342.3 255.5 339.5 255.5 339.5 254z" />
    <path fill="gray" d="M353.3 254.1L353.4 255.5 342.3 255.5 342.2 254z" />
    <path fill="gray" d="M356.1 254.1L356.2 255.6 353.4 255.5 353.3 254.1z" />
    <path fill="gray" d="M367.3 254.1L367.3 255.6 356.2 255.6 356.1 254.1z" />
    <path fill="#949494" d="M369.8 252.3L369.8 253.8 369.8 255.6 369.8 254.1z" />
    <path fill="#FFF" d="M367.7,163.1l2.5,0l0,3.5l-0.4,85.7l0,1.8l-2.5,0l-11.1,0l-2.8,0l-11.1,0l-2.8,0l-8.3,0l-2.8,0l-11.1,0l-2.8,0l-11.1,0l-2.8,0l-11.1,0l-2.8,0l-11.1,0l-2.8,0l-11.1,0l-3,0l0-1.8l0-8l0-2.7l0.1-10.7l0-2.7l0.1-10.7l0-2.7l0-8l0-2.7l0.1-13.4l0-2.7l0.1-10.7l0-2.7l0-8l0-3.5l3,0l11.1,0l2.8,0l11.1,0l2.8,0l11.1,0l2.8,0l11.1,0l2.8,0l11.1,0l2.8,0l8.4,0l2.8,0l11.1,0l2.8,0L367.7,163.1z M353.4,203.2l0.1-13.4l-11.1,0l-0.1,13.4L353.4,203.2 M300.6,203l0.1-13.4l-11.1,0l-0.1,13.4L300.6,203 M328.4,203.1l0.1-13.4l-11.1,0l-0.1,13.4L328.4,203.1 M314.5,203.1l0.1-13.4l-11.1,0l-0.1,13.4L314.5,203.1 M286.7,203l0.1-13.4l-11.1,0l-0.1,13.4L286.7,203 M272.8,202.9l0.1-13.4l-11.1,0l-0.1,13.4L272.8,202.9 M367.3,203.2l0.1-13.4l-11.1,0l-0.1,13.4L367.3,203.2 M328.2,227.2l0.1-10.7l-11.1,0l-0.1,10.7L328.2,227.2 M300.5,227.1l0.1-10.7l-11.1,0l-0.1,10.7L300.5,227.1 M353.3,227.3l0.1-10.7l-11.1,0l-0.1,10.7L353.3,227.3 M314.3,227.1l0.1-10.7l-11.1,0l-0.1,10.7L314.3,227.1 M328.5,187l0.1-10.7l-11.1,0l-0.1,10.7L328.5,187 M286.6,227.1l0.1-10.7l-11.1,0l-0.1,10.7L286.6,227.1 M353.5,187.1l0.1-10.7l-11.1,0l-0.1,10.7L353.5,187.1 M300.7,186.9l0.1-10.7l-11.1,0l-0.1,10.7L300.7,186.9 M272.6,227l0.1-10.7l-11.1,0l-0.1,10.7L272.6,227 M353.2,240.7l0.1-10.7l-11.1,0l-0.1,10.7L353.2,240.7 M367.1,227.3l0.1-10.7l-11.1,0l-0.1,10.7L367.1,227.3 M300.4,240.5l0.1-10.7l-11.1,0l-0.1,10.7L300.4,240.5 M328.2,240.6l0.1-10.7l-11.1,0l-0.1,10.7L328.2,240.6 M314.5,187l0.1-10.7l-11.1,0l-0.1,10.7L314.5,187 M286.8,186.9l0.1-10.7l-11.1,0l-0.1,10.7L286.8,186.9 M272.9,186.8l0.1-10.7l-11.1,0l-0.1,10.7L272.9,186.8 M314.3,240.5l0.1-10.7l-11.1,0l-0.1,10.7L314.3,240.5 M286.5,240.4l0.1-10.7l-11.1,0l-0.1,10.7L286.5,240.4 M367.3,187.2l0.1-10.7l-11.1,0l-0.1,10.7L367.3,187.2 M272.6,240.4l0.1-10.7l-11.1,0l-0.1,10.7L272.6,240.4 M367.1,240.7l0.1-10.7l-11.1,0l-0.1,10.7L367.1,240.7 M339.5,203.1l0.1-13.4l-8.3,0l-0.1,13.4L339.5,203.1 M300.3,251.2l0-8l-11.1,0l0,8L300.3,251.2 M353.1,251.4l0-8l-11.1,0l0,8L353.1,251.4 M328.1,251.3l0-8l-11.1,0l0,8L328.1,251.3 M314.2,251.2l0-8l-11.1,0l0,8L314.2,251.2 M286.4,251.1l0-8l-11.1,0l0,8L286.4,251.1 M272.5,251.1l0-8l-11.1,0l0,8L272.5,251.1 M367,251.4l0-8l-11.1,0l0,8L367,251.4 M353.5,173.7l0-8l-11.1,0l0,8L353.5,173.7 M328.5,173.6l0-8l-11.1,0l0,8L328.5,173.6 M300.7,173.5l0-8l-11.1,0l0,8L300.7,173.5 M353.3,213.9l0-8l-11.1,0l0,8L353.3,213.9 M328.3,213.8l0-8l-11.1,0l0,8L328.3,213.8 M300.5,213.7l0-8l-11.1,0l0,8L300.5,213.7 M339.4,227.2l0.1-10.7l-8.3,0l-0.1,10.7L339.4,227.2 M314.6,173.6l0-8l-11.1,0l0,8L314.6,173.6 M314.4,213.8l0-8l-11.1,0l0,8L314.4,213.8 M286.8,173.5l0-8l-11.1,0l0,8L286.8,173.5 M286.6,213.7l0-8l-11.1,0l0,8L286.6,213.7 M339.6,187.1l0.1-10.7l-8.3,0l-0.1,10.7L339.6,187.1 M272.9,173.4l0-8l-11.1,0l0,8L272.9,173.4 M272.7,213.6l0-8l-11.1,0l0,8L272.7,213.6 M367.4,173.8l0-8l-11.1,0l0,8L367.4,173.8 M367.2,213.9l0-8l-11.1,0l0,8L367.2,213.9 M339.3,240.6l0.1-10.7l-8.3,0l-0.1,10.7L339.3,240.6 M339.2,251.3l0-8l-8.3,0l0,8L339.2,251.3 M339.6,173.7l0-8l-8.3,0l0,8L339.6,173.7 M339.4,213.8l0-8l-8.3,0l0,8L339.4,213.8" />
    <path fill="gray" d="M369.8 254.1L369.8 255.6 367.3 255.6 367.3 254.1z" />
  </g>
  <g>
    <g opacity=".22">
      <path d="M262.2 166.6L262.2 168.1 261.6 256.5 261.5 255zM369.8 255.4L369.8 256.9 369.8 259.5 369.8 258z" />
    </g>
    <path fill="#949494" d="M262.2 162.7L262.2 164.2 261.6 252.5 261.5 251.1zM369.8 251.4L369.8 252.9 369.8 255.6 369.8 254.1z" />
    <path fill="#FFF" d="M261.5 251.1L369.8 251.4 369.8 254.1 258.7 253.7 259.4 162.7 262.2 162.7z" />
  </g>
  <g>
    <path d="M228.3,177c-8.8-9-21.1-14.5-34.7-14.5c-13.5,0-25.7,5.5-34.6,14.4l34.9,35.8L228.3,177z" opacity=".22" />
    <path fill="#B3B3B3" d="M193.3,255.8c27.5-0.2,48.6-21.9,48.6-48.6c0-13.3-5.5-25.3-14.1-34.1l-34.5,35.7V255.8z" />
    <path fill="gray" d="M228.3,173.1c-8.8-9-21.1-14.5-34.7-14.5c-13.5,0-25.7,5.5-34.6,14.4l34.9,35.8L228.3,173.1z" />
    <path fill="#CCC" d="M193.3,255.8L193.3,255.8v-46.9L158.7,173c-8.7,8.8-14,20.8-14,34.2C144.7,234,165.8,255.8,193.3,255.8z" />
  </g>
  <g>
    <path fill="#FFF" d="M341.1,184.3c2.8,0,5.1,2.2,5.1,4.9c0,2.7-2.3,4.9-5.1,4.9c-0.6,0-1.3-0.1-1.9-0.4l-19.6,32.1c0.9,0.9,1.4,2.1,1.4,3.4c0,2.7-2.3,4.9-5.1,4.9c-2.8,0-5.1-2.2-5.1-4.9c0-1.2,0.5-2.2,1.2-3.1l-8.3-8.4c-0.5,0.2-1,0.3-1.6,0.3c-0.7,0-1.4-0.1-2-0.4l-8.1,8.4c0.7,0.9,1.2,1.9,1.2,3.1c0,2.7-2.3,4.9-5.1,4.9c-2.8,0-5.1-2.2-5-4.9c0-2.7,2.3-4.9,5.1-4.9c0.5,0,1.1,0.1,1.6,0.3l8.2-8.5c-0.6-0.8-0.9-1.8-0.9-2.8c0-2.7,2.3-4.9,5.1-4.9c2.8,0,5.1,2.2,5.1,4.9c0,1.2-0.4,2.2-1.2,3.1l8.3,8.4c0.5-0.2,1.1-0.3,1.6-0.3c0.5,0,0.9,0.1,1.3,0.2l19.8-32.5c-0.6-0.8-1-1.8-1-2.9C336,186.5,338.3,184.3,341.1,184.3z" />
  </g>
</svg>