<?xml version="1.0" encoding="utf-8"?>
<svg xmlns="http://www.w3.org/2000/svg" viewBox="0 0 16 16" width="96" height="96">
  <path d="M7.5 1C4.800781 1 2.484375 2.652344 1.5 5L2.609375 5C3.179688 3.882813 4.121094 2.988281 5.269531 2.476563C4.832031 3.144531 4.480469 4 4.261719 5L5.296875 5C5.75 3.164063 6.65625 2 7.5 2C8.34375 2 9.25 3.164063 9.703125 5L10.738281 5C10.519531 4 10.167969 3.144531 9.730469 2.476563C10.878906 2.988281 11.820313 3.882813 12.390625 5L13.5 5C12.515625 2.652344 10.199219 1 7.5 1 Z M 0 6L0.976563 10L1.921875 10L2.5 7.449219L3.078125 10L4.023438 10L5 6L4 6L3.523438 8.40625L3 6L2 6L1.476563 8.40625L1 6 Z M 5 6L5.976563 10L6.921875 10L7.5 7.449219L8.078125 10L9.023438 10L10 6L9 6L8.523438 8.40625L8 6L7 6L6.476563 8.40625L6 6 Z M 10 6L10.980469 10L11.921875 10L12.5 7.449219L13.078125 10L14.019531 10L15 6L14 6L13.527344 8.40625L13 6L12 6L11.472656 8.40625L11 6 Z M 2.03125 11C3.1875 12.800781 5.203125 14 7.5 14C9.796875 14 11.8125 12.800781 12.96875 11L11.738281 11C11.199219 11.648438 10.511719 12.167969 9.734375 12.515625C10.015625 12.085938 10.265625 11.578125 10.460938 11L9.382813 11C8.890625 12.242188 8.179688 13 7.5 13C6.820313 13 6.109375 12.242188 5.617188 11L4.539063 11C4.734375 11.578125 4.984375 12.085938 5.265625 12.515625C4.488281 12.167969 3.800781 11.648438 3.261719 11Z" />
</svg>