<svg id="Logo" xmlns="http://www.w3.org/2000/svg" viewBox="0 0 496.58 496.58"><defs><style>.cls-1{fill:none;stroke:#ffffff;stroke-miterlimit:10;stroke-width:7px;}.cls-2{fill:#ffffff;}.cls-3{fill:#ffffff;}</style></defs><rect class="cls-1" x="80.22" y="82.4" width="351.57" height="351.57" rx="9.19" transform="translate(611.87 249.84) rotate(135)"/><path class="cls-2" d="M256,258.19" transform="translate(-7.71 -9.9)"/><path class="cls-3" d="M371.74,352.35a22.73,22.73,0,0,1-22.93,22.58H162.74v-9.79l137.8-213.9H182.08a22.68,22.68,0,0,1,2.94,6.09,24.76,24.76,0,0,1,1,6.7,22.91,22.91,0,1,1-22.93-22.58H349.21v9.79L207.56,365.14H329.92a23.21,23.21,0,0,1-3-6.1,25.85,25.85,0,0,1-1-6.69,22.91,22.91,0,0,1,45.81,0Z" transform="translate(-7.71 -9.9)"/></svg>