<svg xmlns="http://www.w3.org/2000/svg" viewBox="0 0 509.58 509.58"><path d="M248.28,503.09a19.1,19.1,0,0,1-13.57-5.62L-.89,261.87a19.19,19.19,0,0,1,0-27.14L234.71-.87a19.19,19.19,0,0,1,27.14,0l235.6,235.6a19.19,19.19,0,0,1,0,27.14l-235.6,235.6A19.07,19.07,0,0,1,248.28,503.09ZM13.83,248.3,248.28,482.75,482.74,248.3,248.28,13.84Z" transform="translate(6.51 6.49)" fill="#6c3c97"/><path d="M364,342.45A22.73,22.73,0,0,1,341.15,365H155v-9.79l137.8-213.9H174.37a22.55,22.55,0,0,1,2.94,6.09,24.53,24.53,0,0,1,1,6.7,22.91,22.91,0,1,1-23.24-22.58H341.5v9.79L199.85,355.24H322.21a23.55,23.55,0,0,1-3-6.1,26.16,26.16,0,0,1-1-6.69,22.91,22.91,0,0,1,45.81,0Z" transform="translate(6.51 6.49)" fill="#6c3c97"/></svg>